<?xml version="1.0" encoding="UTF-8" standalone="no"?>
<!-- Created with Inkscape (http://www.inkscape.org/) -->
<svg xmlns:dc="http://purl.org/dc/elements/1.1/" xmlns:cc="http://creativecommons.org/ns#" xmlns:rdf="http://www.w3.org/1999/02/22-rdf-syntax-ns#" xmlns:svg="http://www.w3.org/2000/svg" xmlns="http://www.w3.org/2000/svg" xmlns:sodipodi="http://sodipodi.sourceforge.net/DTD/sodipodi-0.dtd" xmlns:inkscape="http://www.inkscape.org/namespaces/inkscape" version="1.0" width="530" height="270" id="svg2" inkscape:version="0.47pre1 r21720" sodipodi:docname="Gmail_Logo.svg" inkscape:output_extension="org.inkscape.output.svg.inkscape">
  <metadata id="metadata26">
    <rdf:RDF>
      <cc:Work rdf:about="">
        <dc:format>image/svg+xml</dc:format>
        <dc:type rdf:resource="http://purl.org/dc/dcmitype/StillImage"/>
      </cc:Work>
    </rdf:RDF>
  </metadata>
  <sodipodi:namedview pagecolor="#ffffff" bordercolor="#666666" borderopacity="1" objecttolerance="10" gridtolerance="10" guidetolerance="10" inkscape:pageopacity="0" inkscape:pageshadow="2" inkscape:window-width="640" inkscape:window-height="480" id="namedview24" showgrid="false" inkscape:zoom="0.94074074" inkscape:cx="265" inkscape:cy="135" inkscape:window-x="0" inkscape:window-y="0" inkscape:window-maximized="0" inkscape:current-layer="g2571"/>
  <defs id="defs4">
    <inkscape:perspective sodipodi:type="inkscape:persp3d" inkscape:vp_x="0 : 135 : 1" inkscape:vp_y="0 : 1000 : 0" inkscape:vp_z="530 : 135 : 1" inkscape:persp3d-origin="265 : 90 : 1" id="perspective28"/>
  </defs>
  <g transform="translate(-101.629, -310.01)" id="layer1">
    <g transform="matrix(0.862679, 0, 0, 0.862679, 30.2203, 60.9008)" id="g2571">
      <path d="M 625.28814,354.09288 L 624.05788,353.0365 L 622.82762,352.23929 C 607.95951,344.02115 592.41886,358.0494 601.07005,373.13731 L 601.946,374.28227 L 603.08768,375.43052 L 603.08768,375.69297 C 607.00811,379.41984 611.81761,380.28266 617.03719,379.39688 L 618.52663,379.04584 L 620.10792,378.60295 L 620.72141,378.24863 L 621.42348,377.98618 L 622.82762,377.36941 L 624.05788,376.57548 L 625.28814,375.69297 L 626.25266,374.45943 L 627.13189,373.22589 L 627.91926,371.81519 L 628.62133,370.31591 L 628.62133,359.38464 L 627.91926,357.79678 L 627.13189,356.47466 L 626.25266,355.14926 L 625.28814,354.09288" id="path2398" style="fill: rgb(0, 139, 202); fill-opacity: 1; fill-rule: evenodd; stroke: none;"/>
      <path d="M 602.30031,507.06183 L 627.92253,507.06183 L 627.92253,395.09172 L 602.30031,395.09172 L 602.30031,507.06183 z" id="path2400" style="fill: rgb(0, 139, 202); fill-opacity: 1; fill-rule: nonzero; stroke: none;"/>
      <path d="M 497.61663,404.43842 L 501.74046,418.54541 L 504.54874,416.86897 L 507.53089,415.45827 C 515.23396,411.98074 530.75821,410.44209 538.76966,413.69654 L 540.61341,414.66435 L 542.28001,415.81259 C 548.4674,420.32354 549.78952,428.02661 549.30069,435.20805 L 549.12354,435.73625 L 548.59862,436.79591 L 548.33289,436.79591 L 548.33289,436.88449 L 548.15901,437.05837 L 547.80798,437.3241 L 546.92875,437.50126 C 540.67575,437.35035 534.41618,437.88838 528.24191,438.82338 L 525.43364,439.35157 L 522.80252,440.05692 C 517.3172,441.19204 511.33978,443.7477 506.47779,446.57894 L 504.63732,447.90434 L 502.79357,449.13788 L 501.12697,450.54858 C 489.84795,460.07572 487.32837,479.04798 492.96789,492.16091 L 494.28344,494.71985 L 495.77288,497.09836 L 497.61663,499.39156 L 499.72284,501.59291 C 508.95143,510.04726 522.45477,510.81822 533.59273,506.2679 L 534.46867,505.82501 L 535.43648,505.47725 L 537.01449,504.50617 C 539.96712,502.62305 542.15862,500.86788 544.56009,498.2466 L 545.87565,496.65875 L 547.19121,495.07089 L 547.45694,494.5427 L 547.89656,494.27696 L 548.42147,494.10308 L 549.56315,494.10308 L 550.43909,494.19166 L 551.31832,494.5427 L 551.66935,495.33663 L 552.01711,496.30443 L 553.68698,506.44506 L 573.07917,506.44506 L 572.72813,503.88612 L 572.46568,501.33045 L 572.28852,498.42048 C 571.04842,477.55526 572.61003,456.61787 571.67503,435.73625 L 571.41257,433.09201 L 571.23542,430.62164 C 570.27417,424.09634 569.25716,419.5657 566.32094,413.60796 L 565.35641,411.84295 L 564.39189,410.25509 L 563.25021,408.66724 C 551.18381,392.5459 521.01126,394.20921 504.98507,400.73452 L 501.21227,402.41095 L 497.61663,404.43842 z M 521.57226,456.71957 L 523.76705,455.39745 L 526.39816,454.25249 L 529.20644,453.2814 L 532.45433,452.57277 L 535.78751,451.956 L 539.56031,451.69355 L 543.50699,451.51967 L 547.89656,451.60825 L 548.24431,451.51967 L 548.7725,451.60825 L 549.12354,451.8707 L 549.56315,452.31032 L 550.08806,452.92709 L 550.26522,453.36998 L 550.35052,453.98675 L 550.35052,469.32728 L 550.26522,470.2065 L 550.26522,471.17759 L 550.08806,473.03118 C 549.4188,478.27373 546.86314,483.16853 543.15595,486.96101 L 542.45388,487.57778 L 541.84039,488.28313 L 540.26238,489.25422 C 517.37953,502.60664 502.22929,477.53886 518.1505,459.01277 L 519.2036,458.21557 L 521.57226,456.71957" id="path2404" style="fill: rgb(249, 205, 102); fill-opacity: 1; fill-rule: evenodd; stroke: none;"/>
      <path d="M 315.37404,504.59147 L 462.87079,504.59147 L 462.87079,394.47496 L 315.37404,394.47496 L 315.37404,504.59147 z M 441.72671,482.02029 L 441.72671,503.44323 L 338.18471,503.44323 L 338.18471,483.16853 L 338.36187,483.16853 L 338.88678,482.99138 L 377.75973,451.69027 L 389.51774,461.65374 L 399.95691,452.4842 L 441.72671,482.02029 z M 441.72671,478.22781 L 402.15169,450.54531 L 441.72671,416.24893 L 441.72671,478.22781 z M 435.14564,395.61992 L 429.79155,400.73452 C 416.51786,413.585 403.37539,427.47218 389.42916,439.43688 L 388.98955,439.78791 L 344.41475,395.44276 L 435.14564,395.61992 z M 375.47637,449.75138 L 338.18471,479.54993 L 338.27329,418.10252 L 375.47637,449.75138" id="path2408" style="fill: rgb(235, 45, 46); fill-opacity: 1; fill-rule: evenodd; stroke: none;"/>
      <path d="M 261.75765,354.27004 L 283.5185,332.66995 L 282.29152,331.69886 L 281.06126,330.81963 L 280.35919,330.28816 C 263.6867,317.49673 233.79301,310.64664 213.58721,310.09877 L 208.3217,310.01019 L 205.07381,310.01019 C 162.97265,311.60133 133.37095,327.82436 112.85348,364.93886 L 110.74728,369.25625 L 108.90681,373.75409 L 107.15164,378.16334 L 105.6622,382.74647 C 95.915257,419.80848 104.02513,452.00849 127.94796,481.58067 L 131.19257,485.28458 L 132.86244,486.95773 C 159.50824,512.46513 200.20526,513.82334 234.55741,508.29537 L 240.08538,507.41286 L 245.70193,506.44178 L 283.5185,497.44939 L 283.5185,464.21268 L 283.60708,457.42164 L 284.04669,451.07678 L 284.30914,449.66608 L 284.83406,448.51783 L 285.53612,447.46145 L 286.50393,446.66752 L 293.60991,439.78791 L 237.89388,439.78791 L 216.56936,451.51639 L 256.40684,449.31176 L 256.40684,493.30588 L 253.42469,494.36554 L 251.84339,494.89373 L 251.58094,494.89373 L 251.40378,494.98231 C 246.95516,496.70468 239.91807,499.00444 235.1709,499.30299 L 234.99702,499.30299 L 234.90845,499.38828 L 234.38025,499.56544 L 231.74914,499.74588 L 230.345,499.83118 L 229.02944,500.00834 L 227.53672,500.00834 L 226.13587,500.09363 L 223.15044,500.27079 L 217.71104,499.91976 L 212.53411,499.47686 L 207.35717,498.77151 L 202.53127,497.89229 L 197.70537,496.65875 L 193.14192,495.33663 C 158.01881,484.63828 132.82963,445.79814 130.57908,410.08122 L 130.31662,405.22907 L 130.22804,400.3802 L 130.22804,395.79707 L 130.4905,391.38782 C 131.82574,361.50725 151.18512,331.66277 180.59327,322.97221 L 184.01503,322.00113 L 187.61395,321.2072 C 215.68029,316.296 237.79218,322.91644 257.37136,343.51264 L 257.7224,343.95554 L 258.16201,344.48373 L 259.03795,345.54011 L 252.45688,356.47467 L 261.75765,354.27004" id="path2412" style="fill: rgb(0, 148, 210); fill-opacity: 1; fill-rule: evenodd; stroke: none;"/>
      <path d="M 655.55911,507.06183 L 678.28743,507.06183 L 678.28743,338.05029 L 655.55911,338.05029 L 655.55911,507.06183 z" id="path2414" style="fill: rgb(0, 166, 81); fill-opacity: 1; fill-rule: nonzero; stroke: none;"/>
      <path d="M 193.40438,541.44679 L 193.40438,539.5079 L 193.67012,537.83146 C 194.41483,531.31601 199.723,525.40419 206.47795,524.9613 L 209.46338,524.9613 C 212.0945,524.63979 216.2413,526.95268 218.06208,528.66192 L 219.0266,529.45585 L 219.72867,530.33508 L 218.41311,532.54298 L 220.34216,532.10009 L 224.73173,527.51696 L 224.20354,527.16265 C 183.06691,505.49038 171.16127,571.70792 217.00898,563.13546 L 224.73173,561.19329 L 224.73173,551.67272 L 224.81703,551.2331 L 225.34522,550.96737 L 226.66078,549.55995 L 215.25381,549.55995 L 211.21855,551.67272 L 219.28906,551.41026 L 219.28906,560.40264 L 218.58699,560.57652 C 206.20237,564.85127 194.51654,556.20992 193.40438,543.38568 L 193.40438,541.44679" id="path2434" style="fill: rgb(158, 164, 171); fill-opacity: 1; fill-rule: evenodd; stroke: none;"/>
      <path d="M 178.31318,545.59031 L 173.04767,545.59031 L 170.32797,555.5505 L 169.97694,556.69546 L 169.71448,557.66983 L 169.5406,558.46047 L 169.45202,559.16582 L 169.09771,559.16582 L 168.74996,558.02086 L 168.5728,557.04978 L 168.31034,556.16727 L 168.13318,555.5505 L 165.06245,545.59031 L 159.53448,545.59031 L 166.29271,563.13218 L 166.46659,564.10327 L 166.38129,564.36573 L 166.29271,564.80862 L 165.67923,565.51397 L 165.15103,566.21932 L 164.44896,566.83609 L 164.09793,567.10182 L 163.83547,567.45286 L 162.34276,568.24679 L 161.20436,568.95214 L 162.16888,573.09565 L 162.78237,572.9185 C 169.26502,571.50452 171.23672,563.7752 173.74973,558.54905 L 178.31318,545.59031" id="path2438" style="fill: rgb(158, 164, 171); fill-opacity: 1; fill-rule: evenodd; stroke: none;"/>
      <path d="M 144.70575,537.12612 L 139.61739,537.12612 L 139.61739,564.54617 L 143.74123,564.54617 L 144.00368,561.89864 L 144.26614,561.89864 L 144.61717,562.51542 L 145.14536,563.13547 L 146.46092,564.19185 L 147.95364,564.72332 L 149.79411,565.07436 L 151.37212,564.80862 L 152.07419,564.54617 L 152.42851,564.36901 L 152.60238,564.28043 L 152.86484,564.28043 L 154.26897,563.4012 L 154.88575,562.86973 L 155.58781,562.34154 L 155.76169,561.9905 L 155.85027,561.81007 L 156.02743,561.72477 L 156.55234,561.1933 L 157.16583,559.78588 L 157.16583,559.52014 L 157.25441,559.34298 L 157.43156,558.99195 L 157.77932,558.2866 L 157.8679,557.40409 C 158.67167,554.53677 158.01881,550.08158 156.02743,547.79494 L 155.41394,547.08959 L 154.88575,546.55812 L 154.1804,546.02993 L 153.56691,545.67889 L 152.77626,545.32458 L 152.07419,545.1507 L 150.49618,545.1507 L 148.65571,545.236 L 147.77648,545.41315 L 147.07441,545.76747 L 145.75885,546.6467 L 145.14536,547.26347 L 144.70575,548.05739 L 144.70575,537.12612 z M 148.82958,549.02848 L 149.70553,549.11706 C 152.33993,549.8913 153.66533,553.77565 153.12729,556.34771 L 152.95342,556.8759 L 152.86484,556.8759 L 152.86484,557.49267 L 152.42851,558.54906 L 152.25135,558.72621 L 152.16277,558.72621 L 152.16277,558.99195 L 151.98889,559.52014 L 151.28682,560.13691 L 150.58475,560.57653 L 149.70553,560.84226 L 148.82958,560.93084 L 147.86506,560.84226 L 147.07441,560.57653 L 146.37234,560.13691 L 145.93273,559.6973 L 145.31924,558.99195 C 144.0168,556.80045 144.18084,550.77053 147.07441,549.3828 L 147.86506,549.11706 L 148.82958,549.02848" id="path2442" style="fill: rgb(158, 164, 171); fill-opacity: 1; fill-rule: evenodd; stroke: none;"/>
      <path d="M 254.38593,541.09248 L 253.42141,540.12468 L 252.45688,539.33075 C 235.31525,529.79705 221.88737,553.10638 238.50737,562.69585 L 239.73435,563.13547 L 241.13849,563.4865 C 252.61107,565.91422 261.56737,554.72377 256.40356,544.17961 L 255.79007,543.12323 L 254.38593,541.09248 z M 248.06731,540.29855 L 248.76938,541.09248 L 249.47145,542.06357 L 250.08822,543.12323 C 251.27583,545.64608 252.15178,548.16238 252.45688,550.96737 L 252.45688,553.172 L 252.3683,554.75985 L 252.19115,556.43629 L 251.66623,558.02086 L 251.05274,559.60872 L 250.70171,559.78588 L 250.52455,559.87118 L 250.43925,560.05161 L 249.91106,560.57653 L 248.68408,561.54761 L 247.10279,562.0758 L 246.22684,562.25296 L 245.52477,562.34154 C 234.80674,561.69524 231.79835,535.66949 245.87581,539.24217 L 246.92891,539.68178 L 248.06731,540.29855" id="path2446" style="fill: rgb(158, 164, 171); fill-opacity: 1; fill-rule: evenodd; stroke: none;"/>
      <path d="M 301.15551,538.35966 L 299.92853,538.62212 C 289.01694,542.83453 291.1822,557.62062 302.8221,557.22693 L 303.96378,557.05306 L 303.52417,558.10616 C 303.58979,560.49451 302.98942,559.63825 304.31482,562.25296 L 305.10547,563.13218 L 302.8221,563.22404 L 301.50654,563.31262 L 300.10241,563.4865 C 294.23653,563.95564 287.48157,569.90354 291.15267,576.00563 L 291.76616,576.71098 L 293.1703,577.9478 C 298.52111,582.01914 307.09685,580.82169 312.29675,577.06529 L 313.0874,576.18279 L 313.78946,575.38886 L 314.40624,574.50963 L 314.93115,573.62713 C 318.52351,564.34604 312.07038,563.89331 308.43865,558.90337 L 308.35007,558.46048 L 308.43865,558.10616 L 308.43865,557.22693 L 308.87827,556.43301 L 309.75421,555.37662 L 310.54486,554.58269 L 311.4208,553.96592 L 312.82494,552.37807 L 313.0021,551.7613 L 313.26455,551.23311 L 313.61559,550.08814 L 313.87804,548.85132 L 313.96662,547.61778 L 313.78946,545.94135 L 313.61559,544.53065 L 313.0874,543.38568 L 312.56249,542.59176 L 311.949,541.53209 L 311.4208,540.91532 L 310.89589,540.29855 L 310.3677,540.03609 L 313.61559,540.03609 L 317.03735,537.83147 L 305.89283,537.83147 L 303.52417,537.91677 L 301.15551,538.35966 z M 298.78685,541.70925 L 299.5775,540.83002 L 300.54202,540.21325 C 302.40217,539.37996 304.66585,539.74411 306.06999,541.26964 L 306.5949,541.88641 L 307.648,543.47426 C 308.6519,545.24584 309.9084,551.09532 308.87827,552.99484 L 308.70111,553.172 L 308.61253,553.172 L 308.61253,553.43773 L 308.43865,553.96592 L 307.91046,554.22838 L 307.47413,554.58269 L 306.5949,555.19947 L 305.5418,555.46192 L 305.01689,555.5505 L 304.57727,555.73094 L 303.70133,555.5505 L 302.91068,555.28804 L 302.20861,554.93373 L 301.50654,554.49412 C 298.67859,552.58803 296.77906,546.59092 297.82232,543.47426 L 298.17336,542.50646 L 298.78685,541.70925 z M 305.4565,564.54616 L 306.5096,564.54616 C 308.9406,566.46537 312.18192,568.71593 312.29675,572.12785 L 312.21145,572.65604 L 312.12287,572.65604 L 312.12287,573.27609 L 311.77184,574.3292 L 311.4208,574.77209 L 311.15835,575.30356 L 310.89589,575.47744 L 310.71873,575.74317 L 310.3677,576.26809 L 310.01667,576.35995 L 309.75421,576.5371 L 309.14072,576.88814 L 308.43865,577.15387 L 307.73658,577.50491 L 306.85736,577.59349 L 306.06999,577.77064 L 305.27934,577.77064 L 305.10547,577.85922 L 304.22624,577.9478 L 302.20861,577.77064 L 301.24409,577.59349 L 300.45344,577.41633 L 299.5775,577.06529 C 291.08706,573.58776 294.42681,564.4215 304.4887,564.54616 L 305.4565,564.54616" id="path2450" style="fill: rgb(158, 164, 171); fill-opacity: 1; fill-rule: evenodd; stroke: none;"/>
      <path d="M 285.44754,541.09248 L 284.48302,540.12468 L 283.51849,539.33075 C 267.61696,530.33508 253.36891,550.76069 268.25014,562.0758 L 269.4804,562.69585 L 270.70738,563.13547 C 282.01265,566.66221 292.29107,556.40348 287.90478,545.32458 L 286.85168,543.12323 L 285.44754,541.09248 z M 274.56876,538.89113 L 275.70716,538.97643 L 276.93742,539.24217 L 277.99052,539.68178 L 279.1322,540.29855 L 279.83099,541.09248 L 280.44776,542.06357 L 281.50086,544.26491 L 281.9372,545.32458 L 282.11435,545.85605 L 282.11435,545.94463 L 282.19965,546.1185 L 282.37681,546.47282 L 282.9903,548.76602 L 283.16746,549.82241 L 283.34133,550.96737 L 283.34133,552.81768 L 283.42991,553.172 L 283.34133,554.75985 L 283.16746,556.43629 L 282.72784,558.02086 L 282.11435,559.60872 L 280.88409,560.57653 L 280.18203,561.01942 L 279.56854,561.54761 L 279.30608,561.54761 C 268.66023,566.53427 262.83043,542.7722 272.02294,539.33075 L 273.16462,538.97643 L 274.56876,538.89113" id="path2454" style="fill: rgb(158, 164, 171); fill-opacity: 1; fill-rule: evenodd; stroke: none;"/>
      <path d="M 355.20823,544.26491 L 354.76862,543.03137 L 354.50616,542.32602 C 350.68415,533.90776 335.68154,536.31251 333.88372,547.08631 L 333.62454,548.49701 L 333.53596,550.17344 L 333.62454,551.58414 C 334.1068,555.85888 336.40657,559.95319 340.02846,562.33826 L 340.99298,562.86973 L 342.92203,563.74896 C 345.60892,563.71943 347.26567,564.31652 350.11987,563.30934 L 351.34685,562.86973 L 351.52401,562.69257 L 351.52401,562.60399 L 351.78647,562.60399 L 352.31466,562.42684 L 352.48853,562.24968 L 352.48853,562.16438 L 352.75099,562.16438 L 353.27918,561.98722 L 355.99888,559.16582 L 353.27918,560.39937 L 352.75099,560.48794 L 352.31466,560.6651 L 351.43543,560.93084 L 350.38233,561.10472 L 349.59168,561.10472 L 349.4178,561.19329 L 348.45328,561.10472 L 347.57405,560.93084 C 344.23431,560.1894 341.72129,557.42706 340.20233,554.49412 L 339.23781,552.37479 L 338.62432,550.17344 L 342.4857,549.55667 L 355.20823,544.26491 z M 340.55337,540.65287 L 340.99298,540.20997 L 341.51789,539.94752 C 343.24354,539.3209 342.91547,538.50073 345.38255,539.06501 L 346.43565,539.50462 L 347.3116,539.94752 L 348.27612,540.65287 L 348.80431,541.26964 L 349.24065,542.06028 L 349.50638,542.94279 L 349.59168,543.91388 L 349.50638,544.26491 L 349.32923,544.44207 L 349.24065,544.44207 L 349.24065,544.7078 L 348.80431,545.06212 L 348.27612,545.41315 L 338.27328,549.73055 L 338.27328,546.64669 C 338.09941,544.75373 338.57511,543.11667 339.67742,541.62067 L 340.55337,540.65287" id="path2458" style="fill: rgb(158, 164, 171); fill-opacity: 1; fill-rule: evenodd; stroke: none;"/>
      <path d="M 327.83084,527.33652 L 328.0933,525.83724 L 328.27045,525.22047 L 328.62149,524.95802 L 329.23498,524.42982 L 330.28808,523.89835 L 322.83106,523.89835 L 318.70395,525.83724 L 322.83106,525.83724 L 322.74248,527.86799 L 322.74248,530.07262 L 322.56533,534.82963 L 322.39145,539.23888 L 322.30287,543.47098 L 322.21429,547.44062 L 322.21429,560.1369 L 322.12899,560.84225 L 321.95184,561.5476 L 321.68938,561.72148 L 321.51222,562.0758 L 321.16447,562.51541 L 320.89873,563.13218 L 330.28808,563.13218 L 332.21713,561.98722 L 329.40885,561.72148 L 328.44433,561.37045 L 327.83084,560.93083 L 327.65368,560.6651 L 327.56838,560.22548 L 327.47981,559.60871 L 327.47981,546.20708 L 327.30265,543.11994 C 327.27968,539.03548 327.33874,534.94773 327.47981,530.86327 L 327.65368,529.01295 L 327.83084,527.33652" id="path2462" style="fill: rgb(158, 164, 171); fill-opacity: 1; fill-rule: evenodd; stroke: none;"/>
    </g>
  </g>
</svg>