<?xml version="1.0" encoding="UTF-8" standalone="no"?>
<!-- Created with Inkscape (http://www.inkscape.org/) -->
<svg xmlns:dc="http://purl.org/dc/elements/1.1/" xmlns:cc="http://creativecommons.org/ns#" xmlns:rdf="http://www.w3.org/1999/02/22-rdf-syntax-ns#" xmlns:svg="http://www.w3.org/2000/svg" xmlns="http://www.w3.org/2000/svg" xmlns:xlink="http://www.w3.org/1999/xlink" xmlns:sodipodi="http://sodipodi.sourceforge.net/DTD/sodipodi-0.dtd" xmlns:inkscape="http://www.inkscape.org/namespaces/inkscape" version="1.0" width="200.83499" height="54.76144" id="svg2516" inkscape:version="0.47 r22583" sodipodi:docname="Netscape.svg">
  <metadata id="metadata26">
    <rdf:RDF>
      <cc:Work rdf:about="">
        <dc:format>image/svg+xml</dc:format>
        <dc:type rdf:resource="http://purl.org/dc/dcmitype/StillImage"/>
      </cc:Work>
    </rdf:RDF>
  </metadata>
  <sodipodi:namedview pagecolor="#ffffff" bordercolor="#666666" borderopacity="1" objecttolerance="10" gridtolerance="10" guidetolerance="10" inkscape:pageopacity="0" inkscape:pageshadow="2" inkscape:window-width="640" inkscape:window-height="481" id="namedview24" showgrid="false" inkscape:zoom="0.6127736" inkscape:cx="404.61951" inkscape:cy="109.31013" inkscape:window-x="0" inkscape:window-y="0" inkscape:window-maximized="0" inkscape:current-layer="svg2516"/>
  <defs id="defs2518">
    <inkscape:perspective sodipodi:type="inkscape:persp3d" inkscape:vp_x="0 : 120.14319 : 1" inkscape:vp_y="0 : 1000 : 0" inkscape:vp_z="881.23901 : 120.14319 : 1" inkscape:persp3d-origin="440.61951 : 80.095459 : 1" id="perspective28"/>
    <linearGradient id="linearGradient3319">
      <stop id="stop3321" style="stop-color:#c3dcda;stop-opacity:1" offset="0"/>
      <stop id="stop3323" style="stop-color:#c3dcda;stop-opacity:0" offset="1"/>
    </linearGradient>
    <linearGradient x1="109.75922" y1="344.03189" x2="114.21472" y2="339.75525" id="linearGradient3325" xlink:href="#linearGradient3319" gradientUnits="userSpaceOnUse" gradientTransform="matrix(0.6093462,0,0,0.6093462,17.666648,78.979742)"/>
  </defs>
  <g transform="matrix(0.24953571,0,0,0.24953571,2.7274044,-46.557152)" id="layer1">
    <path d="m 351.42857,323.79074 a 177.14285,177.14285 0 1 1 -354.285702,0 177.14285,177.14285 0 1 1 354.285702,0 z" transform="matrix(0.6194247,0,0,0.6194247,-9.160138,95.737781)" id="path3344" style="fill:#a2a4a4;fill-opacity:1;stroke:#80bec2;stroke-width:0;stroke-linejoin:miter;stroke-miterlimit:4;stroke-dasharray:none"/>
    <path d="m 351.42857,323.79074 a 177.14285,177.14285 0 1 1 -354.285702,0 177.14285,177.14285 0 1 1 354.285702,0 z" transform="matrix(0.5980469,0,0,0.5980469,-5.43429,102.65972)" id="path3342" style="fill:#7fc0c4;fill-opacity:1;stroke:#80bec2;stroke-width:0;stroke-linejoin:miter;stroke-miterlimit:4;stroke-dasharray:none"/>
    <path d="m 351.42857,323.79074 a 177.14285,177.14285 0 1 1 -354.285702,0 177.14285,177.14285 0 1 1 354.285702,0 z" transform="matrix(0.5552913,0,0,0.5552913,2.017404,116.50359)" id="path3337" style="fill:#007c85;fill-opacity:1;stroke:#80bec2;stroke-width:0;stroke-linejoin:miter;stroke-miterlimit:4;stroke-dasharray:none"/>
    <path d="m 351.42857,323.79074 a 177.14285,177.14285 0 1 1 -354.285702,0 177.14285,177.14285 0 1 1 354.285702,0 z" transform="matrix(0.5552913,0,0,0.5552913,2.017404,116.50359)" id="path2541" style="fill:#007c85;fill-opacity:1;stroke:#80bec2;stroke-width:0;stroke-linejoin:miter;stroke-miterlimit:4;stroke-dasharray:none"/>
    <path d="m 29.390848,243.54382 8.578682,1.14382 3.145517,1.71574 72.918793,82.06938 22.59054,2.28766 -9.43655,-13.72589 -68.057549,-75.4924 -29.739433,-0.28596 0,2.28765 z" id="path3327" style="fill:#ffffff;fill-opacity:1;fill-rule:evenodd;stroke:#000000;stroke-width:0;stroke-linecap:butt;stroke-linejoin:miter;stroke-miterlimit:4;stroke-opacity:1;stroke-dasharray:none"/>
    <path d="m 29.390848,243.54382 8.578682,1.14382 3.145517,1.71574 72.918793,82.06938 22.59054,2.28766 -9.43655,-13.72589 -68.057549,-75.4924 -29.739433,-0.28596 0,2.28765 z" id="path3317" style="fill:url(#linearGradient3325);fill-opacity:1;fill-rule:evenodd;stroke:#000000;stroke-width:0;stroke-linecap:butt;stroke-linejoin:miter;stroke-miterlimit:4;stroke-opacity:1;stroke-dasharray:none"/>
    <path d="m 186.75368,340.36611 c -16.17038,32.19289 -49.49748,54.30152 -87.95694,54.30152 -37.651231,0 -70.38355,-21.18915 -86.914859,-52.28538 89.879659,-27.2574 120.166809,-10.61775 174.871799,-2.01614 z" id="path3339" style="fill:#000000;fill-opacity:1;stroke:#80bec2;stroke-width:0;stroke-linejoin:miter;stroke-miterlimit:4"/>
    <rect width="6.4854846" height="89.067314" ry="0" x="130.0817" y="-334.1301" transform="scale(1,-1)" id="rect3333" style="fill:#ffffff;fill-opacity:1;stroke:#000000;stroke-width:0;stroke-linejoin:miter;stroke-miterlimit:4;stroke-dasharray:none"/>
    <path d="m 111.92235,243.33334 c 11.61875,-0.31896 16.12999,4.69272 18.59172,11.24152 l 6.48548,-1.29711 c 2.14892,-4.37599 3.77408,-8.92658 15.99753,-9.94441 l 0,-3.02655 -41.50709,0 0.43236,3.02655 z" id="path3335" style="fill:#ffffff;fill-rule:evenodd;stroke:#000000;stroke-width:0;stroke-linecap:butt;stroke-linejoin:miter;stroke-miterlimit:4;stroke-opacity:1;stroke-dasharray:none"/>
    <path d="M 9.003475,336.47954 C 68.817143,320.44665 132.72041,323.1129 186.82755,340.21261 l -0.91591,1.81099 c -38.7747,-3.31673 -104.508132,-17.28023 -171.239252,5.20865 -1.919638,-3.03261 -3.977531,-6.58466 -5.668913,-10.75271 z" id="path2545" style="fill:#ffffff;fill-rule:evenodd;stroke:#000000;stroke-width:0;stroke-linecap:butt;stroke-linejoin:miter;stroke-miterlimit:4;stroke-opacity:1;stroke-dasharray:none"/>
    <path d="m 247.67324,275.10775 c -1.45066,-3.22875 -2.69072,-6.42246 -3.72016,-9.58116 -1.02951,-3.15855 -1.89521,-6.32887 -2.59709,-9.51097 l -2.87786,0 c 0.93586,5.42823 1.64948,10.41184 2.14084,14.95082 0.49132,4.53913 0.73699,8.28268 0.73702,11.23067 l 0,60.92636 -16.846,0 0,-106.55095 24.4267,0 26.46225,60.29465 c 1.12301,2.48015 2.36306,5.53348 3.72016,9.16001 1.35698,3.6266 2.8544,7.8498 4.49227,12.66959 l 2.59709,0 c -0.84237,-4.49223 -1.48579,-8.80902 -1.93027,-12.95036 -0.44462,-4.14127 -0.66689,-8.0135 -0.66682,-11.61672 l 0,-57.55717 16.846,0 0,106.55095 -22.7421,0 -30.04203,-68.01572 z m 85.35306,21.8998 1.7548,1.6846 c 2.48007,-0.70187 4.91338,-1.24001 7.29993,-1.61441 2.38648,-0.37431 4.79639,-0.56149 7.22974,-0.56153 3.32236,4e-5 6.23532,0.17552 8.73886,0.52644 2.50346,0.351 4.94846,0.90083 7.33503,1.6495 l 1.75479,-1.6846 c -2.19939,-8.32936 -4.5742,-14.08507 -7.12445,-17.26715 -2.55034,-3.18196 -5.88445,-4.77297 -10.00231,-4.77303 -4.11795,6e-5 -7.44035,1.60277 -9.96722,4.80813 -2.52693,3.20547 -4.86665,8.94949 -7.01917,17.23205 l 0,0 z m 47.30919,10.03741 -45.55439,0 c 0.79548,7.67431 3.1001,13.59381 6.91387,17.75849 3.81372,4.16472 8.83242,6.24707 15.05612,6.24706 3.36915,1e-5 6.37569,-0.62002 9.01963,-1.86008 2.64382,-1.24004 5.25261,-3.2639 7.82637,-6.07158 l 6.7384,0 0,16.0037 c -3.79042,2.05896 -7.93172,3.62657 -12.42393,4.70284 -4.49232,1.07627 -9.21855,1.61441 -14.17871,1.61441 -11.97941,0 -21.17451,-3.68506 -27.58533,-11.05519 -6.41085,-7.37011 -9.61626,-17.98074 -9.61626,-31.83192 0,-12.40047 2.97144,-22.06352 8.91434,-28.98916 5.94288,-6.9255 14.27228,-10.38828 24.98824,-10.38836 9.54601,8e-5 16.96293,3.04171 22.25076,9.12491 5.2877,6.08335 7.93158,14.64672 7.93165,25.69015 -7e-5,1.54426 -0.0703,4.14135 -0.21057,7.79128 -7e-5,0.56157 -0.0235,0.98272 -0.0702,1.26345 l 0,0 z m 37.76311,36.07851 c -8.51662,0 -13.90967,-1.15816 -16.17918,-3.47448 -2.26955,-2.31632 -3.40431,-8.62187 -3.4043,-18.91666 l 0,-40.99193 -9.89702,0 0,-12.07297 11.93258,0 0,-22.7421 15.93351,0 0,22.7421 16.07389,0 0,12.07297 -16.07389,0 0,41.41308 c -3e-5,4.07114 0.42112,6.69162 1.26345,7.86147 0.84227,1.16987 3.25218,1.7548 7.22974,1.75479 l 7.5807,0 0,12.35373 -14.45948,0 z m 22.53153,-19.86424 7.93166,0 c 1.21664,2.80769 3.08841,5.01872 5.61533,6.63311 2.52688,1.61442 5.33454,2.42163 8.423,2.42162 3.36917,10e-6 6.20023,-0.94758 8.49319,-2.84277 2.29289,-1.89515 3.43935,-4.15298 3.43939,-6.77349 -4e-5,-4.35186 -4.56249,-8.63355 -13.68737,-12.84508 -2.29295,-1.07623 -4.04774,-1.91853 -5.26438,-2.5269 -5.24099,-2.52686 -9.06643,-5.4983 -11.47633,-8.91434 -2.40992,-3.41594 -3.61488,-7.53385 -3.61487,-12.35373 -1e-5,-7.0659 2.3982,-12.62273 7.19464,-16.67052 4.79641,-4.04764 11.40612,-6.0715 19.82915,-6.07158 3.64993,8e-5 7.28819,0.31594 10.9148,0.94759 3.62652,0.6318 7.31158,1.57939 11.05519,2.84276 l 0,15.65274 -6.87878,0 c -2.05901,-2.71401 -4.19985,-4.71447 -6.42254,-6.00139 -2.22278,-1.28678 -4.69118,-1.9302 -7.40522,-1.93027 -3.27564,7e-5 -5.93123,0.83067 -7.96676,2.49181 -2.03558,1.66126 -3.05336,3.8489 -3.05333,6.56292 -3e-5,3.88399 3.62654,7.51056 10.8797,10.87971 3.22878,1.49746 5.77908,2.76091 7.6509,3.79035 6.03643,3.22885 10.22453,6.49276 12.5643,9.79173 2.33967,3.29904 3.50953,7.35846 3.50959,12.17826 -6e-5,7.6743 -2.58545,13.72248 -7.75618,18.14454 -5.17083,4.42208 -12.24849,6.63311 -21.23298,6.63312 -4.35191,-10e-6 -8.45812,-0.36266 -12.31864,-1.08798 -3.86055,-0.72531 -7.33504,-1.76648 -10.42346,-3.12352 l 0,-17.82869 z m 123.39695,-53.76681 0,16.98638 -6.87878,0 c -1.91863,-3.18196 -4.18816,-5.60357 -6.80859,-7.26484 -2.62054,-1.66114 -5.54519,-2.49174 -8.77396,-2.4918 -5.89614,6e-5 -10.55218,2.46847 -13.96814,7.40522 -3.41602,4.93687 -5.12402,11.71036 -5.12399,20.32049 -3e-5,7.90829 1.74307,14.27233 5.22928,19.09213 3.48615,4.81984 8.01351,7.22975 13.58208,7.22974 3.27557,10e-6 6.22362,-0.85398 8.84415,-2.562 2.62044,-1.70798 4.96016,-4.31676 7.01917,-7.82637 l 6.87878,0 0,18.32003 c -3.74361,2.15255 -7.77963,3.76695 -12.10806,4.84322 -4.32853,1.07627 -8.97288,1.61441 -13.93304,1.61441 -10.29481,0 -18.49553,-3.62657 -24.60218,-10.87971 -6.10669,-7.25312 -9.16002,-17.10334 -9.16002,-29.55069 0,-13.38316 3.02994,-23.65453 9.08983,-30.81414 6.05986,-7.15947 14.77531,-10.73924 26.14639,-10.73932 4.53902,8e-5 8.78561,0.51481 12.73979,1.54421 3.95407,1.02956 7.8965,2.62057 11.82729,4.77304 l 0,0 z m 54.04757,66.61189 c -3.50963,3.13523 -6.92562,5.45155 -10.24798,6.94897 -3.32244,1.49742 -6.71503,2.24613 -10.17779,2.24614 -6.22368,-10e-6 -11.41786,-2.17595 -15.58255,-6.52783 -4.16472,-4.35187 -6.24707,-9.75663 -6.24706,-16.21427 -10e-6,-8.04862 3.42768,-14.35417 10.28308,-18.91666 6.85536,-4.56241 18.14451,-7.94331 33.86748,-10.14269 l 0,-5.8961 c -5e-5,-2.9012 -1.2518,-5.32281 -3.75526,-7.26484 -2.50354,-1.94191 -5.72066,-2.91289 -9.65135,-2.91296 -3.97756,7e-5 -7.49884,0.83067 -10.56385,2.49181 -3.06506,1.66126 -5.62705,4.12967 -7.68598,7.40522 l -7.01917,0 0,-16.21428 c 5.52173,-2.29285 10.57552,-3.98915 15.1614,-5.08889 4.58582,-1.09959 8.91431,-1.64943 12.98546,-1.64951 8.8441,8e-5 15.5591,2.3866 20.14501,7.15955 4.58579,4.7731 6.87871,11.72207 6.87878,20.84693 l 0,39.09676 c -7e-5,2.33973 0.0935,4.41038 0.28077,6.21196 0.18711,1.80159 0.49127,3.61487 0.91249,5.43985 l -19.58348,0 0,-7.01916 z m 1.61441,-32.63913 c -8.32945,1.02952 -14.72859,3.02998 -19.19742,6.00139 -4.4689,2.97148 -6.70333,6.65654 -6.7033,11.05519 -3e-5,3.13524 1.07624,5.69724 3.22881,7.68598 2.15252,1.98878 4.91339,2.98316 8.28262,2.98315 2.10571,10e-6 4.31675,-0.44453 6.63311,-1.33364 2.31628,-0.88908 4.94847,-2.31631 7.89656,-4.28169 l 0,-12.49412 c -5e-5,-1.16983 0.10524,-2.50347 0.31587,-4.00092 0.21052,-1.49739 0.52638,-3.13519 0.94758,-4.91342 l -1.40383,-0.70192 z m 52.08223,20.56616 c 0.98265,2.43333 2.44498,4.25831 4.38698,5.47495 1.94193,1.21667 4.36354,1.825 7.26484,1.82498 5.33452,2e-5 9.35884,-2.25781 12.07296,-6.77349 2.71403,-4.51564 4.07106,-11.21894 4.07112,-20.10991 -6e-5,-8.32937 -1.36879,-14.79869 -4.10621,-19.408 -2.73753,-4.60919 -6.60976,-6.91381 -11.61672,-6.91388 -2.76091,7e-5 -5.11233,0.585 -7.05427,1.75479 -1.942,1.16993 -3.6149,2.99491 -5.0187,5.47495 l 0,38.67561 z m -17.96907,-58.39947 17.96907,0 0,8.07205 1.75479,0.56153 c 2.48007,-3.46272 5.13566,-6.00131 7.96675,-7.6158 2.83103,-1.61433 5.97795,-2.42153 9.44078,-2.42161 8.09539,8e-5 14.59981,3.63834 19.51329,10.91481 4.91334,7.27659 7.37005,17.04492 7.37012,29.30502 -7e-5,12.68132 -2.39828,22.66022 -7.19464,29.93674 -4.7965,7.27654 -11.31262,10.9148 -19.54838,10.91481 -3.69681,-10e-6 -6.99581,-0.84231 -9.89703,-2.5269 -2.90129,-1.6846 -5.49838,-4.25829 -7.79127,-7.72109 l -1.61441,0.28077 0,31.79682 -17.96907,0 0,-101.49715 z m 92.51261,31.37568 1.75479,1.6846 c 2.48008,-0.70187 4.91339,-1.24001 7.29994,-1.61441 2.38648,-0.37431 4.79639,-0.56149 7.22974,-0.56153 3.32236,4e-5 6.23531,0.17552 8.73886,0.52644 2.50345,0.351 4.94846,0.90083 7.33503,1.6495 l 1.75479,-1.6846 c -2.19939,-8.32936 -4.57421,-14.08507 -7.12445,-17.26715 -2.55035,-3.18196 -5.88445,-4.77297 -10.00231,-4.77303 -4.11795,6e-5 -7.44035,1.60277 -9.96722,4.80813 -2.52693,3.20547 -4.86665,8.94949 -7.01917,17.23205 l 0,0 z m 47.30919,10.03741 -45.5544,0 c 0.79548,7.67431 3.10011,13.59381 6.91388,17.75849 3.81372,4.16472 8.83241,6.24707 15.05612,6.24706 3.36915,1e-5 6.37569,-0.62002 9.01962,-1.86008 2.64383,-1.24004 5.25262,-3.2639 7.82638,-6.07158 l 6.7384,0 0,16.0037 c -3.79042,2.05896 -7.93172,3.62657 -12.42393,4.70284 -4.49232,1.07627 -9.21855,1.61441 -14.17872,1.61441 -11.9794,0 -21.1745,-3.68506 -27.58532,-11.05519 -6.41085,-7.37011 -9.61627,-17.98074 -9.61626,-31.83192 -10e-6,-12.40047 2.97144,-22.06352 8.91434,-28.98916 5.94288,-6.9255 14.27228,-10.38828 24.98824,-10.38836 9.54601,8e-5 16.96292,3.04171 22.25075,9.12491 5.28771,6.08335 7.93159,14.64672 7.93166,25.69015 -7e-5,1.54426 -0.0703,4.14135 -0.21057,7.79128 -7e-5,0.56157 -0.0235,0.98272 -0.0702,1.26345 l 0,0 z" id="text3346" style="font-size:369.64938354px;font-style:normal;font-weight:normal;line-height:125%;fill:#000000;fill-opacity:1;stroke:none;font-family:Bitstream Vera Sans"/>
    <path d="m 28.681326,346.23636 c 11.460484,0.31896 15.910271,-4.69272 18.338473,-11.24152 l 6.397144,1.2971 c 2.119637,4.37601 3.722663,8.92659 15.779617,9.94442 l 0,3.02655 -40.94171,0 0.426476,-3.02655 z" id="path3352" style="fill:#c3dcda;fill-opacity:1;fill-rule:evenodd;stroke:#000000;stroke-width:0;stroke-linecap:butt;stroke-linejoin:miter;stroke-miterlimit:4;stroke-opacity:1;stroke-dasharray:none"/>
    <path d="m 46.593325,252.1805 6.397143,7.31215 0,85.01423 -6.397143,0 0,-92.32638 z" id="rect3350" style="fill:#c3dcda;fill-opacity:1;stroke:#000000;stroke-width:0;stroke-linejoin:miter;stroke-miterlimit:4"/>
    <path d="m 29.34052,346.23636 c 11.733446,0.77774 16.481397,-3.28707 18.591721,-11.24152 l 6.485484,1.2971 c 2.148909,4.37601 3.774071,8.92659 15.997527,9.94442 l 0,3.02655 -41.507098,0 0.432366,-3.02655 z" id="path3331" style="fill:#ffffff;fill-rule:evenodd;stroke:#000000;stroke-width:0;stroke-linecap:butt;stroke-linejoin:miter;stroke-miterlimit:4;stroke-opacity:1;stroke-dasharray:none"/>
    <path d="m 47.499876,253.69075 6.485484,7.23852 0,83.57763 -6.485484,0 0,-90.81615 z" id="rect3329" style="fill:#ffffff;fill-opacity:1;stroke:#000000;stroke-width:0;stroke-linejoin:miter;stroke-miterlimit:4"/>
  </g>
</svg>